<?xml version="1.0" encoding="utf-8"?>
<!-- Generator: Adobe Illustrator 25.2.3, SVG Export Plug-In . SVG Version: 6.00 Build 0)  -->
<svg version="1.1" id="CC" xmlns="http://www.w3.org/2000/svg" xmlns:xlink="http://www.w3.org/1999/xlink" x="0px" y="0px"
	 viewBox="0 0 93.7 27.9" style="enable-background:new 0 0 93.7 27.9;" xml:space="preserve">
<style type="text/css">
	.st0{fill:#EF068C;}
</style>
<g id="CCSABY">
	<g>
		<path class="st0" d="M18.3,16.4c-0.5,0-1.1-0.2-1.4-0.7c-0.3-0.5-0.5-1.1-0.5-1.8c0-1.6,0.6-2.4,1.8-2.4c0.3,0,0.6,0.1,0.8,0.2
			c0.3,0.2,0.6,0.5,0.7,0.9l1.8-1c-0.7-1.3-2.1-2.1-3.6-2c-1.1,0-2.1,0.4-2.9,1.1c-0.8,0.9-1.2,2-1.1,3.2c-0.1,1.2,0.3,2.3,1.1,3.1
			c0.8,0.8,1.9,1.2,3,1.1c0.7,0,1.5-0.2,2.1-0.6c0.6-0.4,1.2-1,1.5-1.6L20,15.2C19.8,15.9,19.1,16.4,18.3,16.4z"/>
		<path class="st0" d="M10.4,16.4c-0.5,0-1-0.2-1.4-0.7c-0.3-0.5-0.5-1.1-0.5-1.8c0-1.6,0.6-2.4,1.8-2.4c0.3,0,0.6,0.1,0.8,0.2
			c0.3,0.2,0.6,0.5,0.7,0.9l1.8-1c-0.7-1.3-2.2-2.1-3.7-2C9,9.6,8,10,7.2,10.8c-0.8,0.8-1.2,2-1.1,3.1C6,15,6.4,16.2,7.2,17
			c0.8,0.8,1.9,1.2,3,1.1c0.7,0,1.5-0.2,2.1-0.6c0.6-0.4,1.1-0.9,1.4-1.6l-1.7-0.9C11.8,15.9,11.1,16.4,10.4,16.4z"/>
		<path class="st0" d="M26.6,8.6c-2.1-5.2-7.2-8.5-12.8-8.4c-3.6-0.1-7.1,1.4-9.6,4C2.9,5.5,1.9,7,1.2,8.7c-2.1,5.1-1,11,3,14.9
			c1.3,1.3,2.8,2.3,4.5,3c1.7,0.7,3.4,1,5.2,1c1.8,0,3.6-0.4,5.3-1c1.7-0.7,3.3-1.7,4.6-3c1.3-1.2,2.3-2.7,2.9-4.4
			c0.7-1.7,1-3.5,1-5.3C27.7,12.1,27.3,10.3,26.6,8.6z M21.9,21.8c-1.1,1.1-2.3,1.9-3.7,2.5c-2.7,1.1-5.8,1.1-8.6,0
			C8.3,23.7,7,22.9,6,21.9c-1.1-1-1.9-2.3-2.5-3.7c-0.6-1.3-0.9-2.8-0.9-4.3c0-1.5,0.3-2.9,0.9-4.3C4.1,8.3,4.9,7.1,6,6
			c2.1-2.2,4.9-3.4,7.9-3.3c3,0,5.9,1.2,8,3.3c2.1,2.1,3.3,5,3.3,7.9C25.2,16.9,24.1,19.8,21.9,21.8z"/>
	</g>
	<g>
		<path class="st0" d="M56.6,4.1c-2.6-2.6-6.1-4.1-9.8-4c-3.6-0.1-7.1,1.4-9.7,4c-2.6,2.6-4.1,6.1-4,9.8c-0.1,3.6,1.4,7.1,4,9.7
			c2.5,2.6,6,4.1,9.7,4c3.7,0,7.3-1.4,9.8-4.1c2.6-2.5,4-6,3.9-9.6C60.7,10.2,59.2,6.6,56.6,4.1z M54.9,21.7c-2.1,2.2-5,3.4-8,3.4
			c-3,0-5.8-1.2-7.9-3.3c-2.2-2.1-3.4-4.9-3.3-7.9c0-3,1.2-5.9,3.4-8c2.1-2.1,4.9-3.3,7.9-3.3c3-0.1,5.9,1.1,8,3.3
			c2.2,2.1,3.3,5,3.3,8C58.2,16.8,57.1,19.7,54.9,21.7z"/>
		<g>
			<path class="st0" d="M46.9,8.8c0.9,0.1,1.8-0.5,1.9-1.4c0-0.2,0-0.3,0-0.5C48.9,6,48.3,5.1,47.3,5c-0.1,0-0.3,0-0.4,0
				c-0.9-0.1-1.8,0.6-1.9,1.5c0,0.1,0,0.3,0,0.4c-0.1,0.9,0.5,1.8,1.4,1.9C46.6,8.8,46.7,8.8,46.9,8.8z"/>
			<path class="st0" d="M49.7,9.6H44c-0.2,0-0.5,0.1-0.6,0.3c-0.2,0.2-0.3,0.4-0.3,0.6v5.6h1.6v6.7H49v-6.7h1.6v-5.6
				c0-0.2-0.1-0.5-0.3-0.6C50.1,9.6,49.9,9.6,49.7,9.6z"/>
		</g>
	</g>
	<g>
		<path class="st0" d="M79.8,6.6c-1.5,0-2.9,0.5-4,1.4c-1.1,1-1.8,2.4-2,3.9h-1.1l2.7,2.7l2.7-2.7h-1c0.2-1.6,1.3-2.4,3.1-2.4
			c0.9,0,1.8,0.4,2.3,1.1c0.6,1,0.9,2.2,0.8,3.4c0.1,1.2-0.3,2.3-0.9,3.3c-0.5,0.8-1.4,1.3-2.3,1.2c-1.9,0-2.9-0.8-3-2.5h-3.5
			c0.1,1.5,0.8,3,2,4c1.1,0.9,2.5,1.4,4,1.4c1.9,0.1,3.8-0.7,5.2-2.1c1.3-1.4,2.1-3.3,2-5.3c0.1-2-0.5-3.9-1.8-5.4
			C83.7,7.3,81.8,6.5,79.8,6.6z"/>
		<path class="st0" d="M89.6,4.1c-5.4-5.3-14.1-5.3-19.4,0c-2.6,2.6-4,6.1-4,9.7c-0.1,3.6,1.4,7.1,4,9.7c2.5,2.6,6,4.1,9.7,4
			c3.7,0,7.3-1.4,9.8-4.1c2.6-2.5,4-6,3.9-9.7C93.7,10.2,92.2,6.7,89.6,4.1z M87.9,21.7c-2.1,2.2-5,3.4-8,3.4c-3,0-5.9-1.2-8-3.3
			c-2.2-2.1-3.4-4.9-3.3-7.9c0-3,1.2-5.9,3.4-8c2.1-2.2,4.9-3.4,7.9-3.3c3-0.1,5.9,1.1,7.9,3.3c2.2,2.1,3.4,5,3.3,8
			C91.2,16.8,90,19.7,87.9,21.7z"/>
	</g>
</g>
</svg>
